<?xml version="1.0" encoding="UTF-8"?><svg id="Layer_1" xmlns="http://www.w3.org/2000/svg" xmlns:xlink="http://www.w3.org/1999/xlink" viewBox="0 0 1920 1910"><defs><style>.cls-1{fill:url(#linear-gradient);}</style><linearGradient id="linear-gradient" x1="2.5" y1="955" x2="1917.5" y2="955" gradientUnits="userSpaceOnUse"><stop offset="0" stop-color="#00d4ad"/><stop offset=".1" stop-color="#09ce9d"/><stop offset=".36" stop-color="#1fc27a"/><stop offset=".6" stop-color="#2fba61"/><stop offset=".82" stop-color="#39b452"/><stop offset="1" stop-color="#3db34d"/></linearGradient></defs><path class="cls-1" d="M1804.72,1694.9H541.44v-385.92h1229.96c15.72,18.35,39.29,29.78,65.51,29.03,42.47-1.22,77.76-35.22,80.43-77.63,3.04-48.29-35.23-88.41-82.87-88.41-25.25,0-47.85,11.28-63.07,29.06H541.44c-59.62,0-107.95,48.33-107.95,107.95v385.92h-201.87v-359.66c0-73.96,29.06-143.09,81.84-194.66,52.26-51.06,122.03-79.19,196.47-79.19l900.15.04c134.95,0,261.53-50.72,356.4-142.82,94.38-91.62,146.36-213.73,146.36-343.85V2.28H7.16l.13,351.28c.02,59.6,48.34,107.91,107.95,107.91h929.37c15.72,18.35,39.29,29.78,65.52,29.03,42.47-1.22,77.75-35.23,80.42-77.64,3.03-48.29-35.23-88.4-82.87-88.4-25.25,0-47.84,11.28-63.07,29.06H115.28v-138.42h1263.28v383.17H148.78c-15.7-18.44-39.3-29.95-65.58-29.23-42.52,1.17-77.87,35.19-80.54,77.64-3.03,48.29,35.23,88.39,82.87,88.39,25.15,0,47.67-11.2,62.9-28.86h1230.12c59.62,0,107.95-48.33,107.95-107.94V215.1h201.87v359.66c0,73.96-29.06,143.09-81.84,194.66-52.25,51.06-122.03,79.19-196.46,79.19l-900.15-.04c-134.95,0-261.53,50.72-356.4,142.82C59.14,1083.01,7.16,1205.12,7.16,1335.24v572.48h1905.67l-.13-351.26c-.02-59.6-48.34-107.91-107.95-107.91h-929.61c-15.75-18.23-39.28-29.55-65.45-28.75-42.41,1.3-77.59,35.28-80.25,77.63-3.04,48.29,35.23,88.4,82.87,88.4,25.38,0,48.08-11.4,63.31-29.34h929.1v138.39Z"/></svg>