<svg width="134" height="53" viewBox="0 0 134 53" fill="none" xmlns="http://www.w3.org/2000/svg">
<g clip-path="url(#clip0_1595_56979)">
<g filter="url(#filter0_d_1595_56979)">
<path d="M43.14 37.8699V13.6999L22.2 1.60986L1.27002 13.6999V37.8699L22.2 49.9599L43.14 37.8699Z" fill="#3DABE2"/>
<path d="M43.1001 37.8697L22.2001 49.9597L1.31006 37.8697L22.2001 25.9297L43.1001 37.8697Z" fill="#1D1D1B"/>
<path d="M36.38 22.2701L26.92 13.6001H17.54L8.04004 22.2701H16.18L13.7 36.9501L15.18 37.2001L17.71 22.2701H26.82L29.32 37.2001L30.8 36.9501L28.34 22.2701H36.39H36.38ZM28.07 20.7701L27.26 15.9501L32.52 20.7701H28.07ZM11.9 20.7701L17.25 15.8801L16.42 20.7701H11.9ZM17.95 20.7701L18.91 15.1101H25.61L26.56 20.7701H17.95Z" fill="white"/>
<path d="M9.63 22.8101C10.3204 22.8101 10.88 22.2504 10.88 21.5601C10.88 20.8697 10.3204 20.3101 9.63 20.3101C8.93965 20.3101 8.38 20.8697 8.38 21.5601C8.38 22.2504 8.93965 22.8101 9.63 22.8101Z" fill="#3DABE2"/>
<path d="M9.63 20.7998C10.04 20.7998 10.38 21.1398 10.38 21.5498C10.38 21.9598 10.04 22.2998 9.63 22.2998C9.22 22.2998 8.88 21.9598 8.88 21.5498C8.88 21.1398 9.22 20.7998 9.63 20.7998ZM9.63 19.7998C8.66 19.7998 7.88 20.5798 7.88 21.5498C7.88 22.5198 8.66 23.2998 9.63 23.2998C10.6 23.2998 11.38 22.5198 11.38 21.5498C11.38 20.5798 10.6 19.7998 9.63 19.7998Z" fill="white"/>
<path d="M34.78 22.8101C35.4704 22.8101 36.03 22.2504 36.03 21.5601C36.03 20.8697 35.4704 20.3101 34.78 20.3101C34.0897 20.3101 33.53 20.8697 33.53 21.5601C33.53 22.2504 34.0897 22.8101 34.78 22.8101Z" fill="#3DABE2"/>
<path d="M34.78 20.7998C35.19 20.7998 35.53 21.1398 35.53 21.5498C35.53 21.9598 35.19 22.2998 34.78 22.2998C34.37 22.2998 34.03 21.9598 34.03 21.5498C34.03 21.1398 34.37 20.7998 34.78 20.7998ZM34.78 19.7998C33.81 19.7998 33.03 20.5798 33.03 21.5498C33.03 22.5198 33.81 23.2998 34.78 23.2998C35.75 23.2998 36.53 22.5198 36.53 21.5498C36.53 20.5798 35.75 19.7998 34.78 19.7998Z" fill="white"/>
<path d="M22.2001 22.8101C22.8904 22.8101 23.4501 22.2504 23.4501 21.5601C23.4501 20.8697 22.8904 20.3101 22.2001 20.3101C21.5097 20.3101 20.9501 20.8697 20.9501 21.5601C20.9501 22.2504 21.5097 22.8101 22.2001 22.8101Z" fill="#3DABE2"/>
<path d="M22.2001 20.7998C22.6101 20.7998 22.9501 21.1398 22.9501 21.5498C22.9501 21.9598 22.6101 22.2998 22.2001 22.2998C21.7901 22.2998 21.4501 21.9598 21.4501 21.5498C21.4501 21.1398 21.7901 20.7998 22.2001 20.7998ZM22.2001 19.7998C21.2301 19.7998 20.4501 20.5798 20.4501 21.5498C20.4501 22.5198 21.2301 23.2998 22.2001 23.2998C23.1701 23.2998 23.9501 22.5198 23.9501 21.5498C23.9501 20.5798 23.1701 19.7998 22.2001 19.7998Z" fill="white"/>
<path d="M14.42 38.3301C15.1104 38.3301 15.67 37.7704 15.67 37.0801C15.67 36.3897 15.1104 35.8301 14.42 35.8301C13.7297 35.8301 13.17 36.3897 13.17 37.0801C13.17 37.7704 13.7297 38.3301 14.42 38.3301Z" fill="white"/>
<path d="M14.42 36.3301C14.83 36.3301 15.17 36.6701 15.17 37.0801C15.17 37.4901 14.83 37.8301 14.42 37.8301C14.01 37.8301 13.67 37.4901 13.67 37.0801C13.67 36.6701 14.01 36.3301 14.42 36.3301ZM14.42 35.3301C13.45 35.3301 12.67 36.1101 12.67 37.0801C12.67 38.0501 13.45 38.8301 14.42 38.8301C15.39 38.8301 16.17 38.0501 16.17 37.0801C16.17 36.1101 15.39 35.3301 14.42 35.3301Z" fill="white"/>
<path d="M30.04 38.3301C30.7304 38.3301 31.29 37.7704 31.29 37.0801C31.29 36.3897 30.7304 35.8301 30.04 35.8301C29.3497 35.8301 28.79 36.3897 28.79 37.0801C28.79 37.7704 29.3497 38.3301 30.04 38.3301Z" fill="white"/>
<path d="M30.04 36.3301C30.45 36.3301 30.79 36.6701 30.79 37.0801C30.79 37.4901 30.45 37.8301 30.04 37.8301C29.63 37.8301 29.29 37.4901 29.29 37.0801C29.29 36.6701 29.63 36.3301 30.04 36.3301ZM30.04 35.3301C29.07 35.3301 28.29 36.1101 28.29 37.0801C28.29 38.0501 29.07 38.8301 30.04 38.8301C31.01 38.8301 31.79 38.0501 31.79 37.0801C31.79 36.1101 31.01 35.3301 30.04 35.3301Z" fill="white"/>
</g>
<path d="M59.7737 24.939V30.7529C59.5549 31.0332 59.2097 31.3374 58.738 31.6655C58.2732 31.9937 57.6648 32.2773 56.9128 32.5166C56.1609 32.749 55.238 32.8652 54.1443 32.8652C53.1941 32.8652 52.3259 32.708 51.5398 32.3936C50.7537 32.0723 50.0769 31.604 49.5095 30.9888C48.9421 30.3735 48.5046 29.6216 48.197 28.7329C47.8894 27.8442 47.7356 26.8291 47.7356 25.6875V24.7031C47.7356 23.5615 47.8792 22.5464 48.1663 21.6577C48.4602 20.769 48.8772 20.0171 49.4172 19.4019C49.9641 18.7866 50.6169 18.3184 51.3757 17.9971C52.1414 17.6758 52.9958 17.5151 53.9392 17.5151C55.2039 17.5151 56.2429 17.7236 57.0564 18.1406C57.8767 18.5576 58.5056 19.1318 58.9431 19.8633C59.3806 20.5879 59.6541 21.4219 59.7634 22.3652H57.0154C56.9402 21.8457 56.7898 21.3911 56.5642 21.0015C56.3386 20.605 56.0173 20.2974 55.6003 20.0786C55.1902 19.853 54.657 19.7402 54.0007 19.7402C53.447 19.7402 52.9583 19.8496 52.5344 20.0684C52.1106 20.2871 51.7551 20.605 51.468 21.022C51.1809 21.439 50.9622 21.9551 50.8118 22.5703C50.6682 23.1855 50.5964 23.8896 50.5964 24.6826V25.6875C50.5964 26.4873 50.6785 27.1982 50.8425 27.8203C51.0066 28.4355 51.2424 28.9551 51.55 29.3789C51.8645 29.7959 52.2507 30.1138 52.7087 30.3325C53.1736 30.5444 53.7 30.6504 54.2878 30.6504C54.821 30.6504 55.262 30.606 55.6106 30.5171C55.9661 30.4214 56.2498 30.3086 56.4617 30.1787C56.6736 30.0488 56.8376 29.9224 56.9539 29.7993V27H53.9905V24.939H59.7737ZM64.9417 23.8315V32.6602H62.2346V21.5654H64.7981L64.9417 23.8315ZM68.3152 21.4937L68.2742 24.0161C68.1238 23.9888 67.9529 23.9683 67.7615 23.9546C67.5769 23.9409 67.4026 23.9341 67.2385 23.9341C66.8215 23.9341 66.4558 23.9922 66.1414 24.1084C65.8269 24.2178 65.5637 24.3784 65.3518 24.5903C65.1467 24.8022 64.9895 25.062 64.8801 25.3696C64.7708 25.6704 64.7092 26.0122 64.6956 26.395L64.1111 26.3232C64.1111 25.6191 64.1829 24.9663 64.3264 24.3647C64.47 23.7632 64.6785 23.2368 64.9519 22.7856C65.2253 22.3345 65.5671 21.9858 65.9773 21.7397C66.3943 21.4868 66.8728 21.3604 67.4128 21.3604C67.5632 21.3604 67.7239 21.374 67.8948 21.4014C68.0725 21.4219 68.2126 21.4526 68.3152 21.4937ZM72.6731 21.5654V32.6602H69.9558V21.5654H72.6731ZM69.7712 18.6636C69.7712 18.2603 69.908 17.9253 70.1814 17.6587C70.4617 17.3921 70.8376 17.2588 71.3093 17.2588C71.781 17.2588 72.1536 17.3921 72.427 17.6587C72.7073 17.9253 72.8474 18.2603 72.8474 18.6636C72.8474 19.0601 72.7073 19.3916 72.427 19.6582C72.1536 19.9248 71.781 20.0581 71.3093 20.0581C70.8376 20.0581 70.4617 19.9248 70.1814 19.6582C69.908 19.3916 69.7712 19.0601 69.7712 18.6636ZM81.9119 30.3018V16.9102H84.6394V32.6602H82.1785L81.9119 30.3018ZM74.7854 27.2461V27.0308C74.7854 26.1831 74.8811 25.4141 75.0725 24.7236C75.2708 24.0264 75.5579 23.4282 75.9338 22.9292C76.3098 22.4302 76.7644 22.0439 77.2976 21.7705C77.8376 21.4971 78.4495 21.3604 79.1331 21.3604C79.7961 21.3604 80.3738 21.4937 80.866 21.7603C81.365 22.0269 81.7888 22.4062 82.1375 22.8984C82.4929 23.3906 82.7766 23.9751 82.9885 24.6519C83.2004 25.3218 83.3542 26.0601 83.45 26.8667V27.4512C83.3542 28.2373 83.2004 28.9585 82.9885 29.6147C82.7766 30.271 82.4929 30.8452 82.1375 31.3374C81.7888 31.8228 81.365 32.1987 80.866 32.4653C80.3669 32.7319 79.7825 32.8652 79.1125 32.8652C78.4358 32.8652 77.8274 32.7251 77.2874 32.4448C76.7542 32.1646 76.2996 31.7715 75.9236 31.2656C75.5544 30.7598 75.2708 30.165 75.0725 29.4814C74.8811 28.7979 74.7854 28.0527 74.7854 27.2461ZM77.5027 27.0308V27.2461C77.5027 27.7246 77.5437 28.1724 77.6257 28.5894C77.7078 29.0063 77.8411 29.3755 78.0256 29.6968C78.2102 30.0112 78.446 30.2573 78.7332 30.4351C79.0271 30.6128 79.3826 30.7017 79.7996 30.7017C80.3328 30.7017 80.7703 30.5854 81.1121 30.353C81.4607 30.1138 81.7307 29.7891 81.9221 29.3789C82.1135 28.9619 82.2366 28.4937 82.2913 27.9741V26.3643C82.2639 25.9541 82.1921 25.5747 82.0759 25.2261C81.9666 24.8774 81.8093 24.5767 81.6042 24.3237C81.406 24.0708 81.1599 23.8726 80.866 23.729C80.572 23.5854 80.2234 23.5137 79.8201 23.5137C79.4031 23.5137 79.0476 23.606 78.7537 23.7905C78.4597 23.9683 78.2205 24.2178 78.0359 24.5391C77.8513 24.8604 77.7146 25.2329 77.6257 25.6567C77.5437 26.0806 77.5027 26.5386 77.5027 27.0308Z" fill="#1D1D1B"/>
<path d="M95.5598 28.8867C95.5598 28.5381 95.5051 28.2305 95.3958 27.9639C95.2932 27.6904 95.1086 27.4443 94.842 27.2256C94.5823 27.0068 94.22 26.7983 93.7551 26.6001C93.2971 26.4019 92.7161 26.2002 92.012 25.9951C91.2737 25.7764 90.6072 25.5337 90.0125 25.2671C89.4177 24.9937 88.9084 24.6826 88.4846 24.334C88.0608 23.9854 87.7361 23.5854 87.5105 23.1343C87.2849 22.6831 87.1721 22.167 87.1721 21.5859C87.1721 21.0049 87.2917 20.4683 87.531 19.9761C87.7703 19.4839 88.1121 19.0566 88.5564 18.6943C89.0076 18.3252 89.5442 18.0381 90.1663 17.833C90.7883 17.6279 91.4822 17.5254 92.2478 17.5254C93.3689 17.5254 94.3191 17.7407 95.0984 18.1714C95.8845 18.5952 96.4827 19.1523 96.8928 19.8428C97.303 20.5264 97.5081 21.2578 97.5081 22.0371H95.5393C95.5393 21.4766 95.4197 20.981 95.1804 20.5503C94.9412 20.1128 94.5789 19.771 94.0935 19.5249C93.6082 19.272 92.9929 19.1455 92.2478 19.1455C91.5437 19.1455 90.9626 19.2515 90.5046 19.4634C90.0466 19.6753 89.7048 19.9624 89.4792 20.3247C89.2605 20.687 89.1511 21.1006 89.1511 21.5654C89.1511 21.8799 89.2161 22.167 89.3459 22.4268C89.4827 22.6797 89.6912 22.9155 89.9714 23.1343C90.2585 23.353 90.6208 23.5547 91.0583 23.7393C91.5027 23.9238 92.0325 24.1016 92.6477 24.2725C93.4954 24.5117 94.2268 24.7783 94.842 25.0723C95.4573 25.3662 95.9631 25.6978 96.3596 26.0669C96.7629 26.4292 97.0603 26.8428 97.2517 27.3076C97.45 27.7656 97.5491 28.2852 97.5491 28.8662C97.5491 29.4746 97.426 30.0249 97.1799 30.5171C96.9338 31.0093 96.5818 31.4297 96.1238 31.7783C95.6658 32.127 95.1155 32.397 94.4729 32.5884C93.8372 32.7729 93.1262 32.8652 92.3401 32.8652C91.6497 32.8652 90.9695 32.7695 90.2996 32.5781C89.6365 32.3867 89.0315 32.0996 88.4846 31.7168C87.9446 31.334 87.5105 30.8623 87.1824 30.3018C86.8611 29.7344 86.7004 29.0781 86.7004 28.333H88.6692C88.6692 28.8457 88.7683 29.2866 88.9666 29.6558C89.1648 30.0181 89.4348 30.3188 89.7766 30.5581C90.1252 30.7974 90.5183 30.9751 90.9558 31.0913C91.4001 31.2007 91.8616 31.2554 92.3401 31.2554C93.0305 31.2554 93.615 31.1597 94.0935 30.9683C94.572 30.7769 94.9343 30.5034 95.1804 30.1479C95.4333 29.7925 95.5598 29.3721 95.5598 28.8867ZM106.573 30.0967V21.5654H108.48V32.6602H106.665L106.573 30.0967ZM106.931 27.7588L107.721 27.7383C107.721 28.4766 107.642 29.1602 107.485 29.7891C107.335 30.4111 107.089 30.9512 106.747 31.4092C106.405 31.8672 105.957 32.2261 105.404 32.4858C104.85 32.7388 104.177 32.8652 103.384 32.8652C102.844 32.8652 102.348 32.7866 101.897 32.6294C101.452 32.4722 101.07 32.2295 100.748 31.9014C100.427 31.5732 100.177 31.146 99.9998 30.6196C99.8289 30.0933 99.7434 29.4609 99.7434 28.7227V21.5654H101.64V28.7432C101.64 29.2422 101.695 29.6558 101.804 29.9839C101.921 30.3052 102.074 30.5615 102.266 30.7529C102.464 30.9375 102.683 31.0674 102.922 31.1426C103.168 31.2178 103.421 31.2554 103.681 31.2554C104.488 31.2554 105.127 31.1016 105.598 30.7939C106.07 30.4795 106.408 30.0591 106.614 29.5327C106.825 28.9995 106.931 28.4082 106.931 27.7588ZM113.432 21.5654V32.6602H111.525V21.5654H113.432ZM111.382 18.6226C111.382 18.3149 111.474 18.0552 111.658 17.8433C111.85 17.6313 112.13 17.5254 112.499 17.5254C112.862 17.5254 113.138 17.6313 113.33 17.8433C113.528 18.0552 113.627 18.3149 113.627 18.6226C113.627 18.9165 113.528 19.1694 113.33 19.3813C113.138 19.5864 112.862 19.689 112.499 19.689C112.13 19.689 111.85 19.5864 111.658 19.3813C111.474 19.1694 111.382 18.9165 111.382 18.6226ZM121.123 21.5654V23.0215H115.124V21.5654H121.123ZM117.155 18.8687H119.052V29.9121C119.052 30.2881 119.11 30.5718 119.226 30.7632C119.342 30.9546 119.492 31.0811 119.677 31.1426C119.862 31.2041 120.06 31.2349 120.272 31.2349C120.429 31.2349 120.593 31.2212 120.764 31.1938C120.942 31.1597 121.075 31.1323 121.164 31.1118L121.174 32.6602C121.024 32.708 120.825 32.7524 120.579 32.7935C120.34 32.8413 120.05 32.8652 119.708 32.8652C119.243 32.8652 118.816 32.7729 118.426 32.5884C118.036 32.4038 117.725 32.0962 117.493 31.6655C117.267 31.228 117.155 30.6401 117.155 29.9019V18.8687ZM127.952 32.8652C127.179 32.8652 126.479 32.7354 125.85 32.4756C125.228 32.209 124.691 31.8364 124.24 31.3579C123.796 30.8794 123.454 30.312 123.215 29.6558C122.975 28.9995 122.856 28.2817 122.856 27.5024V27.0718C122.856 26.1694 122.989 25.3662 123.256 24.6621C123.522 23.9512 123.885 23.3496 124.343 22.8574C124.801 22.3652 125.32 21.9927 125.901 21.7397C126.482 21.4868 127.084 21.3604 127.706 21.3604C128.499 21.3604 129.182 21.4971 129.757 21.7705C130.338 22.0439 130.813 22.4268 131.182 22.9189C131.551 23.4043 131.824 23.9785 132.002 24.6416C132.18 25.2979 132.269 26.0156 132.269 26.7949V27.646H123.984V26.0977H130.372V25.9541C130.344 25.4619 130.242 24.9834 130.064 24.5186C129.893 24.0537 129.62 23.6709 129.244 23.3701C128.868 23.0693 128.355 22.9189 127.706 22.9189C127.275 22.9189 126.879 23.0112 126.516 23.1958C126.154 23.3735 125.843 23.6401 125.583 23.9956C125.323 24.3511 125.122 24.7852 124.978 25.2979C124.835 25.8105 124.763 26.4019 124.763 27.0718V27.5024C124.763 28.0288 124.835 28.5244 124.978 28.9893C125.129 29.4473 125.344 29.8506 125.624 30.1992C125.911 30.5479 126.257 30.8213 126.66 31.0195C127.07 31.2178 127.535 31.3169 128.054 31.3169C128.724 31.3169 129.292 31.1802 129.757 30.9067C130.221 30.6333 130.628 30.2676 130.977 29.8096L132.125 30.7222C131.886 31.0845 131.582 31.4297 131.213 31.7578C130.844 32.0859 130.389 32.3525 129.849 32.5576C129.316 32.7627 128.683 32.8652 127.952 32.8652Z" fill="#3DABE2"/>
</g>
<defs>
<filter id="filter0_d_1595_56979" x="0.27002" y="0.609863" width="45.87" height="52.3501" filterUnits="userSpaceOnUse" color-interpolation-filters="sRGB">
<feFlood flood-opacity="0" result="BackgroundImageFix"/>
<feColorMatrix in="SourceAlpha" type="matrix" values="0 0 0 0 0 0 0 0 0 0 0 0 0 0 0 0 0 0 127 0" result="hardAlpha"/>
<feOffset dx="1" dy="1"/>
<feGaussianBlur stdDeviation="1"/>
<feColorMatrix type="matrix" values="0 0 0 0 0 0 0 0 0 0 0 0 0 0 0 0 0 0 0.35 0"/>
<feBlend mode="normal" in2="BackgroundImageFix" result="effect1_dropShadow_1595_56979"/>
<feBlend mode="normal" in="SourceGraphic" in2="effect1_dropShadow_1595_56979" result="shape"/>
</filter>
<clipPath id="clip0_1595_56979">
<rect width="133.7" height="53" fill="white"/>
</clipPath>
</defs>
</svg>
