<svg id="Layer_1" data-name="Layer 1" xmlns="http://www.w3.org/2000/svg" viewBox="0 0 356 172"><defs><style>.cls-1{fill:none;stroke:#003e69;stroke-miterlimit:10;stroke-width:1.01px;}.cls-2{fill:#1d98d5;}.cls-3{fill:#183a64;}</style></defs><line class="cls-1" x1="5.14" y1="97.9" x2="350.86" y2="97.9"/><path class="cls-2" d="M22.45,135.29a6,6,0,0,1-2.29,5,9.52,9.52,0,0,1-6.11,1.83,19.17,19.17,0,0,1-7-1v-1.74a17.86,17.86,0,0,0,6.89,1.14,7.71,7.71,0,0,0,4.87-1.41,4.47,4.47,0,0,0,1.8-3.69A4.25,4.25,0,0,0,20,133a5.33,5.33,0,0,0-1.94-1.7,24.05,24.05,0,0,0-4-1.66,13.46,13.46,0,0,1-5.29-2.84,5.67,5.67,0,0,1-1.46-4.07,5.6,5.6,0,0,1,2.19-4.57,8.74,8.74,0,0,1,5.65-1.77,16.51,16.51,0,0,1,6.61,1.33l-.63,1.5a15.56,15.56,0,0,0-5.95-1.29,6.92,6.92,0,0,0-4.4,1.28,4.15,4.15,0,0,0-1.64,3.48,4.62,4.62,0,0,0,.5,2.27,4.7,4.7,0,0,0,1.65,1.6,22.51,22.51,0,0,0,3.93,1.7,21.42,21.42,0,0,1,4.39,1.95,6.37,6.37,0,0,1,2.14,2.16A5.85,5.85,0,0,1,22.45,135.29Z"/><path class="cls-2" d="M35.64,141.73H33.88V118.4H25.77v-1.64h18v1.64H35.64Z"/><path class="cls-2" d="M50.59,130.85v10.88H48.85v-25H54.8q4.64,0,6.86,1.71a6.14,6.14,0,0,1,2.22,5.17,6.78,6.78,0,0,1-1.32,4.24,7.4,7.4,0,0,1-4,2.47l6.77,11.38H63.23l-6.44-10.88Zm0-1.51h4.77a7.6,7.6,0,0,0,4.9-1.4A5,5,0,0,0,62,123.78a4.87,4.87,0,0,0-1.71-4.15c-1.13-.87-3-1.3-5.56-1.3H50.59Z"/><path class="cls-2" d="M83.06,132.91H72.91l-3.48,8.82H67.5l10-25.07h1.11l9.84,25.07h-2Zm-9.52-1.57h8.94l-3.4-9c-.29-.7-.63-1.68-1-2.93a27.1,27.1,0,0,1-1,3Z"/><path class="cls-2" d="M99.93,141.73H98.17V118.4H90.06v-1.64h18v1.64H99.93Z"/><path class="cls-2" d="M126.79,141.73H113.15v-25h13.64v1.6h-11.9v9.45h11.23v1.6H114.89v10.71h11.9Z"/><path class="cls-2" d="M143.66,129.14h9.21v11.39a20.77,20.77,0,0,1-8.15,1.54q-5.91,0-9.06-3.34t-3.15-9.45a14.25,14.25,0,0,1,1.56-6.76,10.92,10.92,0,0,1,4.48-4.55,13.61,13.61,0,0,1,6.68-1.6,17.3,17.3,0,0,1,7.33,1.5l-.7,1.57a15.9,15.9,0,0,0-6.73-1.5,10.26,10.26,0,0,0-7.83,3,11.44,11.44,0,0,0-2.9,8.22q0,5.63,2.75,8.48t8.08,2.84a15.66,15.66,0,0,0,5.86-1v-8.78h-7.43Z"/><path class="cls-2" d="M160.53,141.73v-25h1.74v25Z"/><path class="cls-2" d="M181.4,118a9.43,9.43,0,0,0-7.4,3q-2.69,3-2.69,8.23c0,3.56.84,6.33,2.54,8.3a9.07,9.07,0,0,0,7.27,3,19.94,19.94,0,0,0,5.78-.8v1.54a18.86,18.86,0,0,1-6.19.87,10.55,10.55,0,0,1-8.28-3.4q-3-3.4-3-9.5a14.92,14.92,0,0,1,1.44-6.71A10.53,10.53,0,0,1,175,118a12.33,12.33,0,0,1,6.3-1.58,15.15,15.15,0,0,1,6.54,1.37l-.7,1.57A12.73,12.73,0,0,0,181.4,118Z"/><path class="cls-2" d="M215.33,141.73,206,118.67h-.14c.1,1.41.14,2.86.14,4.34v18.72h-1.67v-25h2.7l8.84,22h.1l8.85-22h2.63v25h-1.76V122.8c0-1.32.07-2.68.21-4.09h-.14l-9.34,23Z"/><path class="cls-2" d="M249.57,141.73H235.92v-25h13.65v1.6h-11.9v9.45H248.9v1.6H237.67v10.71h11.9Z"/><path class="cls-2" d="M267.6,141.73l-9.31-23.06h-.13c.09,1.41.13,2.86.13,4.34v18.72h-1.67v-25h2.7l8.84,22h.11l8.84-22h2.63v25H278V122.8c0-1.32.07-2.68.21-4.09h-.14l-9.34,23Z"/><path class="cls-2" d="M288.19,116.76H295c3.09,0,5.35.52,6.8,1.57a5.5,5.5,0,0,1,2.17,4.75,5.11,5.11,0,0,1-1.33,3.61,6.43,6.43,0,0,1-3.86,1.85v.1a7.56,7.56,0,0,1,4.39,1.89,5.5,5.5,0,0,1,1.41,4,6.44,6.44,0,0,1-2.29,5.31,10,10,0,0,1-6.49,1.87h-7.65Zm1.75,11.12h5.49c2.35,0,4.05-.39,5.12-1.17a4.25,4.25,0,0,0,1.6-3.67,4,4,0,0,0-1.81-3.62A10.28,10.28,0,0,0,295,118.3h-5Zm0,1.53v10.78h5.87q6.93,0,6.93-5.64,0-5.13-7.31-5.14Z"/><path class="cls-2" d="M325.16,141.73H311.52v-25h13.64v1.6h-11.9v9.45H324.5v1.6H313.26v10.71h11.9Z"/><path class="cls-2" d="M334,130.85v10.88h-1.74v-25h5.94q4.63,0,6.86,1.71a6.14,6.14,0,0,1,2.22,5.17,6.78,6.78,0,0,1-1.32,4.24,7.33,7.33,0,0,1-4,2.47l6.78,11.38h-2.09l-6.43-10.88Zm0-1.51h4.76a7.59,7.59,0,0,0,4.9-1.4,5,5,0,0,0,1.75-4.16,4.87,4.87,0,0,0-1.71-4.15q-1.71-1.3-5.57-1.3H334Z"/><polygon class="cls-2" points="13.62 69.34 13.62 52.41 5.14 52.41 5.14 77.82 30.54 77.82 30.54 69.34 13.62 69.34"/><polygon class="cls-3" points="47.46 35.44 5.14 35.44 5.14 48.14 13.57 48.14 13.57 43.98 39.03 43.98 39.03 69.34 34.76 69.34 34.76 77.82 47.46 77.82 47.46 35.44"/><polygon class="cls-3" points="58.68 35.95 71.61 35.95 71.61 67.11 90.13 67.11 90.13 77.82 58.68 77.82 58.68 35.95"/><polygon class="cls-3" points="95.65 35.95 128.01 35.95 128.01 46.66 108.53 46.66 108.53 51.9 125.22 51.9 125.22 61.87 108.53 61.87 108.53 77.82 95.6 77.82 95.6 35.95 95.65 35.95"/><polygon class="cls-2" points="161.34 78.05 137.92 78.05 137.92 35.84 161.34 35.84 161.34 38.57 140.94 38.57 140.94 54.52 160.2 54.52 160.2 57.26 140.94 57.26 140.94 75.37 161.34 75.37 161.34 78.05"/><path class="cls-2" d="M202.12,78.05h-3L173.75,40.57h-.22c.22,4.44.34,7.8.34,10.08V78H171V35.84h3l25.35,37.42h.17c-.17-3.47-.29-6.77-.29-9.85V35.84h2.91V78.05Z"/><polygon class="cls-2" points="237.67 78.05 214.26 78.05 214.26 35.84 237.67 35.84 237.67 38.57 217.28 38.57 217.28 54.52 236.53 54.52 236.53 57.26 217.28 57.26 217.28 75.37 237.67 75.37 237.67 78.05"/><path class="cls-2" d="M250.32,59.65v18.4h-3V35.84h10.2q7.95,0,11.8,2.9c2.56,1.94,3.81,4.85,3.81,8.72a11.21,11.21,0,0,1-2.27,7.18A12.49,12.49,0,0,1,264,58.8L275.61,78H272L260.91,59.59H250.32Zm0-2.51h8.14c3.6,0,6.44-.79,8.38-2.39s3-3.93,3-7-1-5.52-2.9-7-5.13-2.22-9.57-2.22h-7V57.14Z"/><path class="cls-2" d="M299.37,56.29H314.8v18.8a34.77,34.77,0,0,1-13.67,2.56c-6.61,0-11.68-1.82-15.15-5.52s-5.3-8.89-5.3-15.61a23,23,0,0,1,2.62-11.17,18.35,18.35,0,0,1,7.52-7.52A23.26,23.26,0,0,1,302,35.15a29.56,29.56,0,0,1,12.31,2.51l-1.2,2.62a27.12,27.12,0,0,0-11.28-2.51c-5.53,0-9.91,1.66-13.1,5s-4.84,7.86-4.84,13.55q0,9.31,4.61,14c3.08,3.13,7.57,4.66,13.56,4.66a26.14,26.14,0,0,0,9.79-1.59V59H299.42V56.29Z"/><polygon class="cls-2" points="335.2 58.8 347.68 35.84 350.86 35.84 336.68 61.59 336.68 77.82 333.6 77.82 333.6 61.82 319.36 35.84 322.78 35.84 335.2 58.8"/></svg>