<?xml version="1.0" encoding="UTF-8"?> <svg xmlns="http://www.w3.org/2000/svg" id="Layer_1" data-name="Layer 1" viewBox="0 0 556 150"><defs><style>.cls-1{fill:#ffb259;}.cls-2{fill:#6f2277;}.cls-3{fill:#fd495c;}.cls-4{fill:#009ade;}.cls-5{fill:#003764;}</style></defs><polygon class="cls-1" points="52.9 62.7 76.5 50.7 100 62.7 76.5 74.6 52.9 62.7"></polygon><polygon class="cls-2" points="52.9 62.7 76.5 74.6 76.5 98.6 52.9 86.6 52.9 62.7"></polygon><polygon class="cls-3" points="100 62.7 100 86.6 76.5 98.6 76.5 74.6 100 62.7"></polygon><polygon class="cls-1" points="88.2 80.6 111.9 68.7 135.4 80.6 111.9 92.6 88.2 80.6"></polygon><polygon class="cls-2" points="88.2 80.6 111.9 92.6 111.9 116.6 88.2 104.5 88.2 80.6"></polygon><polygon class="cls-3" points="135.4 80.6 135.4 104.5 111.9 116.6 111.9 92.6 135.4 80.6"></polygon><polygon class="cls-1" points="17.5 80.6 41.1 68.7 64.6 80.6 41.1 92.6 17.5 80.6"></polygon><polygon class="cls-2" points="17.5 80.6 41.1 92.6 41.1 116.6 17.5 104.5 17.5 80.6"></polygon><polygon class="cls-3" points="64.6 80.6 64.6 104.5 41.1 116.6 41.1 92.6 64.6 80.6"></polygon><polygon class="cls-1" points="52.9 98.6 76.5 86.6 100 98.6 76.5 110.5 52.9 98.6"></polygon><polygon class="cls-2" points="52.9 98.6 76.5 110.5 76.5 134.6 52.9 122.6 52.9 98.6"></polygon><polygon class="cls-3" points="100 98.6 100 122.6 76.5 134.6 76.5 110.5 100 98.6"></polygon><polygon class="cls-1" points="52.9 26.7 76.5 14.7 100 26.7 76.5 38.6 52.9 26.7"></polygon><polygon class="cls-2" points="52.9 26.7 76.5 38.6 76.5 62.7 52.9 50.7 52.9 26.7"></polygon><polygon class="cls-3" points="100 26.7 100 50.7 76.5 62.7 76.5 38.6 100 26.7"></polygon><polygon class="cls-1" points="88.2 44.6 111.9 32.6 135.4 44.6 111.9 56.7 88.2 44.6"></polygon><polygon class="cls-2" points="88.2 44.6 111.9 56.7 111.9 80.6 88.2 68.7 88.2 44.6"></polygon><polygon class="cls-3" points="135.4 44.6 135.4 68.7 111.9 80.6 111.9 56.7 135.4 44.6"></polygon><polygon class="cls-1" points="17.5 44.6 41.1 32.6 64.6 44.6 41.1 56.7 17.5 44.6"></polygon><polygon class="cls-2" points="17.5 44.6 41.1 56.7 41.1 80.6 17.5 68.7 17.5 44.6"></polygon><polygon class="cls-3" points="64.6 44.6 64.6 68.7 41.1 80.6 41.1 56.7 64.6 44.6"></polygon><path class="cls-1" d="M165,106.9v27.4h-9.8V64.8h22.7c6.6,0,11.8,1.9,15.5,5.8,3.8,3.9,5.7,8.9,5.7,15.2s-1.9,11.4-5.7,15.2c-3.8,3.9-8.9,5.8-15.5,5.8H165Zm0-7.5h12.9c3.8,0,6.6-1.3,8.6-3.9,2-2.5,2.9-5.8,2.9-9.7a15.81393,15.81393,0,0,0-2.9-9.8c-1.9-2.6-4.8-3.9-8.6-3.9H165Z"></path><path class="cls-1" d="M256.3,109.2c0,8.3-2.2,14.7-6.7,19.2s-10.5,6.9-17.9,6.9c-7.5,0-13.3-2.3-17.6-6.9q-6.6-6.9-6.6-19.2V90.1c0-8.2,2.2-14.6,6.6-19.3,4.4-4.6,10.3-6.9,17.6-6.9,7.5,0,13.5,2.3,17.9,6.9,4.5,4.6,6.7,11,6.7,19.3Zm-9.7-19.3c0-6.1-1.3-10.6-3.9-13.7s-6.3-4.7-11.1-4.7c-4.6,0-8.3,1.6-10.7,4.7-2.5,3.1-3.8,7.8-3.8,13.7v19.3c0,6.1,1.3,10.7,3.8,13.9,2.5,3.1,6.1,4.7,10.8,4.7,4.8,0,8.5-1.6,11.1-4.7s3.9-7.8,3.9-14V89.9Z"></path><path class="cls-1" d="M314.2,114.2h.3l9-49.4h10.2l-14.3,69.5h-8.9L298.3,85H298l-12.2,49.3H277L262.7,64.8H273l9.1,49.3h.3l11.8-49.3h8.5Z"></path><polygon class="cls-4" points="161.1 38.7 161.1 26.9 155.1 26.9 155.1 44.6 172.9 44.6 172.9 38.7 161.1 38.7"></polygon><polygon class="cls-5" points="184.8 15 155.1 15 155.1 23.9 161.1 23.9 161.1 21 178.8 21 178.8 38.7 175.9 38.7 175.9 44.6 184.8 44.6 184.8 15"></polygon><path class="cls-5" d="M192.6,15.3h9V37.1h13v7.6h-22Z"></path><path class="cls-5" d="M218.5,15.3h22.7v7.6H227.6v3.7h11.7v6.9H227.6V44.6h-9V15.3Z"></path><path class="cls-4" d="M264.5,44.8H248.1V15.2h16.4v1.9H250.2V28.3h13.4v1.9H250.2V42.9h14.3Z"></path><path class="cls-4" d="M293,44.8h-2.1L273.2,18.6H273c.2,3.1.2,5.5.2,7V44.7h-2V15.2h2.1L291,41.4h.1c-.1-2.4-.2-4.7-.2-6.9V15.2h2V44.8Z"></path><path class="cls-4" d="M317.8,44.8H301.4V15.2h16.4v1.9H303.5V28.3h13.4v1.9H303.5V42.9h14.3Z"></path><path class="cls-4" d="M326.7,31.9V44.8h-2.1V15.2h7.1c3.7,0,6.5.6,8.2,2,1.8,1.4,2.6,3.4,2.6,6.1a7.5064,7.5064,0,0,1-1.6,5,9.14314,9.14314,0,0,1-4.8,2.9l8.1,13.4h-2.4L334,31.8l-7.3.1Zm0-1.8h5.7c2.5,0,4.5-.5,5.9-1.7a5.938,5.938,0,0,0,2.1-4.9,5.68543,5.68543,0,0,0-2.1-4.9c-1.4-1-3.6-1.6-6.7-1.6h-4.9V30.1Z"></path><path class="cls-4" d="M361,29.6h10.8V42.7a24.17056,24.17056,0,0,1-9.6,1.8c-4.6,0-8.2-1.3-10.6-3.9s-3.7-6.2-3.7-10.9a16.32579,16.32579,0,0,1,1.8-7.8,12.41769,12.41769,0,0,1,5.2-5.2,15.66444,15.66444,0,0,1,7.9-1.9,20.06032,20.06032,0,0,1,8.6,1.8l-.8,1.8a17.92726,17.92726,0,0,0-7.9-1.8c-3.9,0-6.9,1.2-9.1,3.6-2.3,2.3-3.4,5.6-3.4,9.6,0,4.3,1,7.7,3.3,9.8,2.1,2.2,5.4,3.3,9.4,3.3a16.90032,16.90032,0,0,0,6.8-1.2V31.5H361V29.6Z"></path><path class="cls-4" d="M386.1,31.3l8.7-16.1H397l-9.9,18.1V44.6H385V33.4L375,15.2h2.4Z"></path><path class="cls-2" d="M373.8,116.8a11.8324,11.8324,0,0,0-2.7-7.9c-1.8-2.1-5-3.9-9.7-5.6-6.5-2-11.5-4.6-15.1-7.9-3.5-3.3-5.2-7.5-5.2-12.8a17.2737,17.2737,0,0,1,5.8-13.5,21.44713,21.44713,0,0,1,14.9-5.4c6.4,0,11.7,2,15.5,5.9A19.81156,19.81156,0,0,1,383,84.4l-.1.3h-9.3c0-4.1-1-7.3-3.3-9.9a10.69162,10.69162,0,0,0-8.6-3.8c-3.5,0-6.1,1-8,3.3a11.92464,11.92464,0,0,0-2.8,8.1,10.0195,10.0195,0,0,0,3,7.5c2,2,5.4,3.9,10.2,5.6,6.4,2.1,11.2,4.7,14.5,8.1,3.4,3.4,4.9,7.7,4.9,13,0,5.7-2,10.2-5.9,13.5-3.9,3.4-9,5-15.4,5a24.6795,24.6795,0,0,1-16-5.5c-4.5-3.7-6.7-8.8-6.6-15.6l.1-.3h9.3c0,4.7,1.3,8.2,3.8,10.5a13.25666,13.25666,0,0,0,9.3,3.5,11.76121,11.76121,0,0,0,8.5-3A9.90871,9.90871,0,0,0,373.8,116.8Z"></path><path class="cls-2" d="M414.6,98.7h.3l14.6-33.9h10.9l-20.9,44.5v25h-9.8V108.6L389.1,64.8H400Z"></path><path class="cls-3" d="M448.3,134.2V64.8h19.3c6.7,0,11.9,1.6,15.6,4.7q5.7,4.65,5.7,14.1a15.44867,15.44867,0,0,1-2.4,8.6,14.47575,14.47575,0,0,1-6.8,5.6,13.06766,13.06766,0,0,1,9.3,5.8,18.99118,18.99118,0,0,1,3.3,11.2c0,6.4-1.9,11.2-5.6,14.6s-8.8,5-15.2,5L448.3,134.2Zm9.8-39.3h11a10.22593,10.22593,0,0,0,7.3-3c1.7-1.8,2.6-4.6,2.6-8.2,0-3.8-.9-6.7-2.9-8.6s-4.8-2.8-8.6-2.8H458V95A.09793.09793,0,0,1,458.1,94.9Zm0,6.9v25.1h13.4c3.5,0,6.2-1,8.2-3.1s2.8-5.1,2.8-9.1c0-3.8-.9-6.8-2.8-9.1a10.45608,10.45608,0,0,0-7.9-3.7h-.5C471.3,101.8,458.1,101.8,458.1,101.8Z"></path><path class="cls-3" d="M512.3,126.9h28.2v7.3H502.6V64.8h9.8l-.1,62.1Z"></path></svg> 