<?xml version="1.0" encoding="UTF-8"?>
<!-- Generator: Adobe Illustrator 16.0.0, SVG Export Plug-In . SVG Version: 6.00 Build 0)  -->
<!DOCTYPE svg PUBLIC "-//W3C//DTD SVG 1.1//EN" "http://www.w3.org/Graphics/SVG/1.1/DTD/svg11.dtd">
<svg version="1.1" id="Layer_1" xmlns="http://www.w3.org/2000/svg" xmlns:xlink="http://www.w3.org/1999/xlink" x="0px" y="0px" width="529.266px" height="112.968px" viewBox="0 0 264.633 56.484" enable-background="new 0 0 264.633 56.484" xml:space="preserve">
<path fill="#20201E" d="M101.375,5.664c1.38,0,2.574,1.068,2.574,2.451c0,1.443-1.129,2.508-2.512,2.508H90.766  c-2.573,0-3.705,1.32-3.705,4.393v3.33H98.11c1.381,0,2.576,1.066,2.576,2.447c0,1.445-1.132,2.516-2.512,2.516H87.061v22.473  h11.678c1.382,0,2.574,1.066,2.574,2.51c0,1.379-1.192,2.449-2.574,2.449h-23.04c-1.444,0-2.573-1.07-2.573-2.449  c0-1.443,1.129-2.51,2.573-2.51h5.903V23.309h-5.903c-1.444,0-2.511-1.07-2.511-2.516c0-1.381,1.131-2.447,2.511-2.447h5.903v-3.957  c0-5.523,3.262-8.725,8.474-8.725H101.375z M143.667,50.74h-1.571c-2.26,0-4.394-1.443-5.588-4.27  c-1.567,2.637-5.209,4.27-8.976,4.27h-3.706c-7.72,0-11.489-5.023-11.489-11.68V29.52c0-6.654,3.707-11.676,11.364-11.676h5.776  c1.381,0,2.51,1.068,2.51,2.512c0,1.381-1.067,2.449-2.51,2.449h-5.838c-3.452,0-5.839,2.26-5.839,6.777v9.42  c0,4.518,2.26,6.779,6.465,6.779h4.02c4.079,0,7.281-2.197,7.281-6.779V20.42c0-1.508,1.256-2.701,2.762-2.701  c1.507,0,2.699,1.193,2.699,2.701v21.781c0,1.945,0.315,3.393,2.01,3.393h0.753c1.443,0,2.449,1.002,2.449,2.635  C146.241,49.611,145.488,50.74,143.667,50.74z M157.286,50.74c-1.38,0-2.51-1.07-2.51-2.449c0-1.443,1.13-2.51,2.51-2.51h6.341  V26.383c0-1.945-0.376-3.391-2.007-3.391h-5.276c-1.38,0-2.384-1.004-2.384-2.572c0-1.447,0.753-2.576,2.512-2.576h5.837  c1.947,0,4.396,0.879,5.713,4.268c1.444-2.635,4.583-4.268,7.91-4.268h4.646c2.069,0,3.073,0.754,3.073,2.447  c0,1.445-0.814,2.514-2.51,2.514h-4.771c-4.141,0-7.344,2.197-7.344,6.842v16.135h10.611c1.379,0,2.512,1.066,2.512,2.51  c0,1.379-1.133,2.449-2.512,2.449H157.286z M225.272,50.74h-1.568c-2.26,0-4.395-1.443-5.586-4.27c-1.57,2.637-5.213,4.27-8.98,4.27  h-3.703c-7.721,0-11.49-5.023-11.49-11.68V29.52c0-6.654,3.705-11.676,11.365-11.676h5.775c1.383,0,2.514,1.068,2.514,2.512  c0,1.381-1.068,2.449-2.514,2.449h-5.836c-3.453,0-5.844,2.26-5.844,6.777v9.42c0,4.518,2.264,6.779,6.469,6.779h4.021  c4.076,0,7.277-2.197,7.277-6.779V20.42c0-1.508,1.258-2.701,2.764-2.701c1.508,0,2.699,1.193,2.699,2.701v21.781  c0,1.945,0.314,3.393,2.012,3.393h0.752c1.445,0,2.449,1.002,2.449,2.635C227.848,49.611,227.094,50.74,225.272,50.74z   M238.768,43.898c-1.068,0-2.014-0.566-2.451-1.572c-0.25-0.688-0.436-1.631-0.436-2.387V29.52c0-6.654,4.08-11.676,11.801-11.676  h5.146c7.727,0,11.805,5.021,11.805,11.676v9.605c0,6.656-4.078,11.615-11.805,11.615h-5.084c-1.191,0-2.822-0.314-3.893-0.818  c-0.941-0.5-1.441-1.189-1.441-2.26c0-1.441,1.002-2.385,2.258-2.385c0.254,0,0.564,0.064,0.879,0.127  c0.752,0.252,1.758,0.377,2.385,0.377h4.771c4.209,0,6.469-2.262,6.469-6.779v-9.42c0-4.518-2.26-6.777-6.469-6.777h-4.896  c-4.205,0-6.465,2.26-6.465,6.777v12.244C241.155,43.145,240.024,43.898,238.768,43.898z"/>
<g>
	<path fill="#F76908" d="M56.482,51.68c0,2.652-2.15,4.805-4.803,4.805H4.804C2.15,56.484,0,54.332,0,51.68V4.803   C0,2.15,2.15,0,4.804,0h46.875c2.653,0,4.803,2.15,4.803,4.803V51.68z"/>
	<g>
		<path fill="#FFFFFF" d="M27.873,9.247h20.279c0,0,1.269-0.049,1.269,1.027v8.591c0,0,0.249,1.784-1.892,1.343l-21.979-4.523    l0.504-1.349l1.579-4.472"/>
		<path fill="#FFFFFF" d="M20.41,29.724l19.414-4.147c1.118-0.271,1.113,0.886,1.113,0.886v10.639c0,0,0.008,0.957-1.039,0.811    L18.604,34.67"/>
		<path fill="#FFFFFF" d="M13.889,47.618H6.138c0,0-0.56,0.09-0.56-0.51v-4.336c0-0.657,0.724-0.81,0.724-0.81l10.487-2.351"/>
		<path fill="#FFFFFF" d="M21.288,27.318l2.676-7.305l0.371-1.011l-10.973,0.001c0,0-1.205-0.074-1.312,0.968l-0.501,4.862    c-0.097,0.938,0.632,1.055,0.632,1.055l8.787,2.354"/>
	</g>
</g>
</svg>