<?xml version="1.0"?>
<svg width="134" height="53" xmlns="http://www.w3.org/2000/svg" xmlns:svg="http://www.w3.org/2000/svg">
 <defs>
  <clipPath id="clip0_1595_56979">
   <rect fill="white" height="53" id="svg_1" width="133.7"/>
  </clipPath>
 </defs>
 <g class="layer">
  <title>Layer 1</title>
  <g clip-path="url(#clip0_1595_56979)" id="svg_2">
   <g id="svg_17" transform="matrix(1, 0, 0, 1, 0, 0)">
    <path d="m22.56,6.95l19.04,0c0,0 1.19,-0.05 1.19,0.96l0,8.07c0,0 0.23,1.68 -1.77,1.26l-20.64,-4.25l0.48,-1.26l1.48,-4.2" fill="#F56908" id="svg_18"/>
    <path d="m15.56,26.17l18.22,-3.89c1.05,-0.26 1.05,0.83 1.05,0.83l0,9.99c0,0 0.01,0.9 -0.97,0.76l-19.99,-3.05" fill="#F56908" id="svg_19"/>
    <path d="m9.43,42.98l-7.28,0c0,0 -0.52,0.09 -0.52,-0.48l0,-4.07c0,-0.62 0.68,-0.76 0.68,-0.76l9.85,-2.21" fill="#F56908" id="svg_20"/>
    <path d="m16.38,23.92l2.52,-6.86l0.34,-0.95l-10.3,0c0,0 -1.13,-0.07 -1.23,0.91l-0.47,4.57c-0.09,0.88 0.6,0.99 0.6,0.99l8.25,2.21" fill="#F56908" id="svg_21"/>
   </g>
   <path d="m58.52,24.94l0,5.81c-0.22,0.28 -0.56,0.59 -1.03,0.92c-0.47,0.32 -1.08,0.61 -1.83,0.85c-0.75,0.23 -1.67,0.35 -2.77,0.35c-0.95,0 -1.81,-0.16 -2.6,-0.48c-0.79,-0.32 -1.46,-0.79 -2.03,-1.4c-0.57,-0.62 -1.01,-1.37 -1.31,-2.26c-0.31,-0.89 -0.46,-1.9 -0.46,-3.04l0,-0.99c0,-1.14 0.14,-2.15 0.43,-3.04c0.29,-0.89 0.71,-1.64 1.25,-2.26c0.54,-0.61 1.2,-1.08 1.96,-1.4c0.76,-0.32 1.62,-0.48 2.56,-0.48c1.26,0 2.3,0.2 3.12,0.62c0.82,0.42 1.45,0.99 1.88,1.72c0.44,0.73 0.71,1.56 0.82,2.51l-2.74,0c-0.08,-0.52 -0.23,-0.98 -0.46,-1.37c-0.22,-0.39 -0.54,-0.7 -0.96,-0.92c-0.41,-0.23 -0.94,-0.34 -1.6,-0.34c-0.55,0 -1.04,0.11 -1.47,0.33c-0.42,0.22 -0.77,0.54 -1.06,0.95c-0.29,0.42 -0.51,0.94 -0.66,1.55c-0.14,0.62 -0.21,1.32 -0.21,2.11l0,1.01c0,0.8 0.08,1.51 0.24,2.13c0.17,0.62 0.4,1.14 0.71,1.56c0.31,0.42 0.7,0.73 1.16,0.95c0.46,0.21 0.99,0.32 1.58,0.32c0.53,0 0.97,-0.04 1.32,-0.13c0.36,-0.1 0.64,-0.21 0.85,-0.34c0.21,-0.13 0.38,-0.26 0.49,-0.38l0,-2.8l-2.96,0l0,-2.06l5.78,0zm5.17,-1.11l0,8.83l-2.71,0l0,-11.09l2.57,0l0.14,2.26zm3.38,-2.34l-0.05,2.53c-0.15,-0.03 -0.32,-0.05 -0.51,-0.07c-0.18,-0.01 -0.36,-0.02 -0.52,-0.02c-0.42,0 -0.78,0.06 -1.1,0.18c-0.31,0.11 -0.58,0.27 -0.79,0.48c-0.2,0.21 -0.36,0.47 -0.47,0.78c-0.11,0.3 -0.17,0.64 -0.18,1.02l-0.59,-0.07c0,-0.7 0.07,-1.35 0.22,-1.96c0.14,-0.6 0.35,-1.12 0.62,-1.57c0.28,-0.46 0.62,-0.8 1.03,-1.05c0.41,-0.25 0.89,-0.38 1.43,-0.38c0.15,0 0.31,0.01 0.48,0.04c0.18,0.02 0.32,0.05 0.43,0.09zm4.35,0.08l0,11.09l-2.71,0l0,-11.09l2.71,0zm-2.9,-2.91c0,-0.4 0.14,-0.73 0.41,-1c0.28,-0.27 0.66,-0.4 1.13,-0.4c0.47,0 0.84,0.13 1.12,0.4c0.28,0.27 0.42,0.6 0.42,1c0,0.4 -0.14,0.73 -0.42,1c-0.28,0.26 -0.65,0.4 -1.12,0.4c-0.47,0 -0.85,-0.14 -1.13,-0.4c-0.27,-0.27 -0.41,-0.6 -0.41,-1zm12.14,11.64l0,-13.39l2.73,0l0,15.75l-2.46,0l-0.27,-2.36zm-7.12,-3.05l0,-0.22c0,-0.85 0.09,-1.62 0.28,-2.31c0.2,-0.69 0.49,-1.29 0.86,-1.79c0.38,-0.5 0.83,-0.89 1.37,-1.16c0.54,-0.27 1.15,-0.41 1.83,-0.41c0.67,0 1.24,0.13 1.74,0.4c0.49,0.27 0.92,0.65 1.27,1.14c0.35,0.49 0.64,1.08 0.85,1.75c0.21,0.67 0.36,1.41 0.46,2.22l0,0.58c-0.1,0.79 -0.25,1.51 -0.46,2.16c-0.21,0.66 -0.5,1.24 -0.85,1.73c-0.35,0.48 -0.78,0.86 -1.27,1.13c-0.5,0.26 -1.09,0.4 -1.76,0.4c-0.67,0 -1.28,-0.14 -1.82,-0.43c-0.54,-0.28 -0.99,-0.67 -1.37,-1.17c-0.37,-0.51 -0.65,-1.11 -0.85,-1.79c-0.19,-0.68 -0.28,-1.43 -0.28,-2.23zm2.71,-0.22l0,0.22c0,0.47 0.04,0.92 0.13,1.34c0.08,0.42 0.21,0.79 0.4,1.11c0.18,0.31 0.42,0.56 0.7,0.74c0.3,0.17 0.65,0.26 1.07,0.26c0.53,0 0.97,-0.11 1.31,-0.35c0.35,-0.24 0.62,-0.56 0.81,-0.97c0.19,-0.42 0.32,-0.89 0.37,-1.41l0,-1.61c-0.03,-0.41 -0.1,-0.79 -0.21,-1.13c-0.11,-0.35 -0.27,-0.65 -0.48,-0.91c-0.19,-0.25 -0.44,-0.45 -0.73,-0.59c-0.3,-0.14 -0.65,-0.22 -1.05,-0.22c-0.42,0 -0.77,0.1 -1.07,0.28c-0.29,0.18 -0.53,0.43 -0.71,0.75c-0.19,0.32 -0.33,0.69 -0.41,1.12c-0.09,0.42 -0.13,0.88 -0.13,1.37z" fill="#1D1D1B" id="svg_22"/>
   <g fill="#808080" fill-rule="nonzero" font-size="9pt" id="svgGroup" stroke="#808080" stroke-linecap="round" stroke-width="0.00mm">
    <path d="m95.57,27.93l1.95,0q-0.16,1.4 -0.81,2.51q-0.65,1.11 -1.85,1.76q-1.19,0.65 -2.97,0.65q-1.31,0 -2.37,-0.49q-1.06,-0.49 -1.83,-1.39q-0.76,-0.9 -1.18,-2.16q-0.41,-1.26 -0.41,-2.82l0,-1.47q0,-1.56 0.41,-2.82q0.41,-1.26 1.19,-2.18q0.77,-0.9 1.88,-1.39q1.09,-0.49 2.47,-0.49q1.68,0 2.83,0.64q1.16,0.63 1.8,1.74q0.65,1.11 0.8,2.58l-1.95,0q-0.14,-1.04 -0.53,-1.78q-0.38,-0.75 -1.09,-1.16q-0.71,-0.4 -1.86,-0.4q-0.99,0 -1.74,0.38q-0.75,0.38 -1.25,1.07q-0.5,0.69 -0.75,1.66q-0.25,0.97 -0.25,2.14l0,1.5q0,1.09 0.22,2.05q0.23,0.95 0.7,1.68q0.47,0.72 1.19,1.14q0.72,0.41 1.71,0.41q1.25,0 1.99,-0.39q0.74,-0.4 1.12,-1.14q0.38,-0.74 0.54,-1.78l0.02,-0.03zm10.82,2.83l0,-5.67q0,-0.65 -0.27,-1.14q-0.25,-0.49 -0.77,-0.75q-0.52,-0.27 -1.28,-0.27q-0.71,0 -1.24,0.24q-0.53,0.24 -0.84,0.64q-0.3,0.39 -0.3,0.86l-1.89,0q0,-0.59 0.31,-1.17q0.31,-0.58 0.88,-1.05q0.57,-0.48 1.38,-0.75q0.81,-0.29 1.8,-0.29q1.2,0 2.12,0.4q0.92,0.4 1.44,1.23q0.52,0.82 0.52,2.05l0,5.13q0,0.55 0.1,1.17q0.1,0.63 0.29,1.07l0,0.16l-1.96,0q-0.14,-0.33 -0.22,-0.87q-0.08,-0.54 -0.08,-1.01l0.02,0.01zm23.04,0l0,-5.67q0,-0.65 -0.25,-1.14q-0.27,-0.49 -0.77,-0.75q-0.52,-0.27 -1.28,-0.27q-0.71,0 -1.24,0.24q-0.53,0.24 -0.84,0.64q-0.3,0.39 -0.3,0.86l-1.88,0q0,-0.59 0.31,-1.17q0.31,-0.58 0.88,-1.05q0.57,-0.48 1.38,-0.75q0.81,-0.29 1.8,-0.29q1.2,0 2.12,0.4q0.92,0.4 1.44,1.23q0.52,0.82 0.52,2.05l0,5.13q0,0.55 0.1,1.17q0.1,0.63 0.29,1.07l0,0.16l-1.96,0q-0.15,-0.33 -0.22,-0.87q-0.08,-0.54 -0.08,-1.01l0,0.01zm-24.89,-4.8l2.19,0l0.02,1.33l-1.9,0q-0.81,0 -1.43,0.13q-0.64,0.13 -1.06,0.38q-0.42,0.25 -0.65,0.64q-0.22,0.38 -0.22,0.89q0,0.52 0.23,0.94q0.23,0.42 0.71,0.68q0.48,0.25 1.17,0.25q0.87,0 1.53,-0.37q0.66,-0.37 1.05,-0.89q0.39,-0.53 0.42,-1.03l0.81,0.9q-0.07,0.42 -0.38,0.94q-0.32,0.52 -0.84,0.99q-0.52,0.48 -1.24,0.79q-0.72,0.31 -1.61,0.31q-1.11,0 -1.96,-0.44q-0.84,-0.44 -1.31,-1.18q-0.47,-0.74 -0.47,-1.66q0,-0.88 0.35,-1.56q0.35,-0.68 1,-1.12q0.65,-0.46 1.57,-0.69q0.91,-0.23 2.05,-0.23l-0.02,0zm23.04,0l2.19,0l0.02,1.33l-1.9,0q-0.81,0 -1.43,0.13q-0.64,0.13 -1.06,0.38q-0.42,0.25 -0.65,0.64q-0.22,0.38 -0.22,0.89q0,0.52 0.23,0.94q0.23,0.42 0.71,0.68q0.48,0.25 1.17,0.25q0.87,0 1.53,-0.37q0.66,-0.37 1.05,-0.89q0.39,-0.53 0.42,-1.03l0.81,0.9q-0.07,0.42 -0.39,0.94q-0.32,0.52 -0.84,0.99q-0.52,0.48 -1.24,0.79q-0.72,0.31 -1.61,0.31q-1.11,0 -1.96,-0.44q-0.84,-0.44 -1.31,-1.18q-0.47,-0.74 -0.47,-1.66q0,-0.88 0.35,-1.56q0.35,-0.68 1,-1.12q0.65,-0.46 1.57,-0.69q0.91,-0.23 2.05,-0.23l-0.01,0zm-14.61,-4.33l0.16,2.11l0,13.13l-1.89,0l0,-15.24l1.73,0zm7.58,5.41l0,0.21q0,1.2 -0.29,2.23q-0.29,1.02 -0.83,1.77q-0.54,0.75 -1.34,1.17q-0.8,0.41 -1.83,0.41q-1.05,0 -1.86,-0.35q-0.81,-0.35 -1.36,-1.01q-0.56,-0.66 -0.89,-1.58q-0.33,-0.92 -0.46,-2.09l0,-1.14q0.13,-1.22 0.46,-2.19q0.34,-0.97 0.89,-1.66q0.55,-0.69 1.35,-1.05q0.8,-0.36 1.84,-0.36q1.04,0 1.85,0.4q0.81,0.4 1.35,1.15q0.55,0.74 0.83,1.77q0.29,1.03 0.29,2.29l0,0.01zm-1.89,0.21l0,-0.21q0,-0.83 -0.17,-1.55q-0.17,-0.73 -0.53,-1.28q-0.36,-0.55 -0.92,-0.87q-0.56,-0.32 -1.33,-0.32q-0.71,0 -1.24,0.24q-0.52,0.24 -0.89,0.66q-0.37,0.41 -0.59,0.93q-0.22,0.52 -0.34,1.08l0,2.63q0.2,0.71 0.57,1.34q0.37,0.63 0.98,1.01q0.62,0.38 1.54,0.38q0.76,0 1.32,-0.32q0.55,-0.32 0.91,-0.88q0.36,-0.56 0.53,-1.28q0.17,-0.73 0.17,-1.55l0,-0.01z" id="svg_3"/>
   </g>
  </g>
 </g>
</svg>