<svg width="2699" height="1056" xmlns="http://www.w3.org/2000/svg" xmlns:xlink="http://www.w3.org/1999/xlink" xml:space="preserve" overflow="hidden"><g transform="translate(-401 1121)"><path d="M557-970.861C557-1030.58 605.415-1079 665.139-1079L2616.86-1079C2676.58-1079 2725-1030.58 2725-970.861L2725-229.139C2725-169.416 2676.58-121 2616.86-121L665.139-121C605.415-121 557-169.416 557-229.139Z" fill="#FFFFFF" fill-rule="evenodd"/><path d="M2590.19-121.661C2272.71-144.756 2525.12-493.289 2588.03-594.95 2654.65-466.403 2907.68-98.5659 2590.19-121.661Z" fill="#FFFFFF" fill-rule="evenodd"/><path d="M3040.75-815.026C3165.47-527.22 2703.76-572.322 2574.07-576.154 2670.13-698.491 2916.03-1102.83 3040.75-815.026Z" fill="#FFFFFF" fill-rule="evenodd"/><path d="M0.0828574 217.873C-6.5004-86.1125 380.689-17.6184 549.488 98.0982 359.106 162.301 6.66611 521.858 0.0828574 217.873Z" fill="#FFFFFF" fill-rule="evenodd" transform="matrix(0.0165549 0.999863 0.999863 -0.0165549 2488.4 -1076.02)"/><path d="M2613.26-574.448 2590.17-534.09 2570.85-576.386Z" fill="#020A6A" fill-rule="evenodd"/><path d="M2978.39-320.645C2711.61 33.7238 2720.35-475.307 2553.62-583.063 2715.3-580.712 3245.18-675.013 2978.39-320.645Z" fill="#FFFFFF" fill-rule="evenodd"/><path d="M2541-1063.5C2541-1072.06 2547.94-1079 2556.5-1079L2709.5-1079C2718.06-1079 2725-1072.06 2725-1063.5L2725-1063.5C2725-1054.94 2718.06-1048 2709.5-1048L2556.5-1048C2547.94-1048 2541-1054.94 2541-1063.5Z" fill="#FFFFFF" fill-rule="evenodd"/><path d="M2599.97-173.241C2416.71-184.077 2576.16-536.655 2616.46-639.095 2650.28-515.042 2783.24-162.405 2599.97-173.241Z" fill="#E8695A" fill-rule="evenodd"/><path d="M2594.17-190.234C2410.9-201.07 2570.36-553.648 2610.65-656.089 2644.47-532.035 2777.43-179.398 2594.17-190.234Z" fill="#020A6A" fill-rule="evenodd"/><path d="M2544.19-202.5C2491.85-246.903 2499.4-388.985 2574.5-558.5" stroke="#E8695A" stroke-width="4.58333" stroke-miterlimit="8" fill="none" fill-rule="evenodd"/><path d="M3020.31-790.459C3097.15-602.872 2711.96-607.255 2602.89-602.509 2696.04-690.68 2943.47-978.046 3020.31-790.459Z" fill="#E8695A" fill-rule="evenodd"/><path d="M0.0683992 147.076C-5.36611-58.1305 314.261-11.8934 453.605 66.2215 296.444 109.562 5.50291 352.282 0.0683992 147.076Z" fill="#E8695A" fill-rule="evenodd" transform="matrix(0.0165549 0.999863 0.999863 -0.0165549 2561.31 -1043.58)"/><path d="M2237.76-802.584C2356-1014.03 2601.29-635.028 2624.25-604.696 2521.89-633.692 2119.53-591.136 2237.76-802.584Z" fill="#E8695A" fill-rule="evenodd"/><path d="M2252.74-834.684C2387.99-1035.68 2601.23-637.754 2621.61-605.634 2521.99-642.963 2117.49-633.693 2252.74-834.684Z" fill="#020A6A" fill-rule="evenodd"/><path d="M3009.46-813.931C3091.47-628.547 2706.31-622.248 2597.41-614.481 2688.08-705.2 2927.45-999.316 3009.46-813.931Z" fill="#020A6A" fill-rule="evenodd"/><path d="M0.0683992 147.076C-5.36611-58.1305 314.261-11.8934 453.605 66.2215 296.444 109.562 5.50291 352.282 0.0683992 147.076Z" fill="#020A6A" fill-rule="evenodd" transform="matrix(0.0165549 0.999863 0.999863 -0.0165549 2543.99 -1041.41)"/><path d="M2630.33-632.944 2610.26-600.384 2593.24-634.64Z" fill="#020A6A" fill-rule="evenodd"/><path d="M2269.66-331.829C2404.8-72.0093 2503.89-359.504 2617.95-678.66 2703.37-287.986 2763.32-157.084 2900.02-307.974" stroke="#8D3979" stroke-width="13.75" stroke-linecap="round" stroke-linejoin="round" stroke-miterlimit="10" fill="none" fill-rule="evenodd"/><path d="M2276.99-304.371C2090.11-555.44 2591.21-626.46 2634.97-601.121 2384.58-514.707 2463.86-53.3009 2276.99-304.371Z" fill="#8D3979" fill-rule="evenodd"/><path d="M2953.2-343.152C2805.81-164.588 2735.12-511.581 2593.01-625.777 2715.3-585.094 3100.6-521.716 2953.2-343.152Z" fill="#E8695A" fill-rule="evenodd"/><path d="M2973.13-371.125C2837.14-183.731 2744.98-525.65 2596.04-630.776 2720.62-597.786 3109.12-558.52 2973.13-371.125Z" fill="#020A6A" fill-rule="evenodd"/><path d="M2923.01-317.5C3093.63-469.497 2972.89-558.122 2719.5-601.5" stroke="#E8695A" stroke-width="6.875" stroke-miterlimit="8" fill="none" fill-rule="evenodd"/><path d="M3012-721.98C3038.8-763.575 3006.81-868.31 2942.2-873.145 2877.6-877.98 2809.9-834.408 2658.5-677.5" stroke="#E8695A" stroke-width="6.875" stroke-miterlimit="8" fill="none" fill-rule="evenodd"/><path d="M2751.5-1033.19C2534.54-1095.19 2517.77-864.94 2576.92-681.5" stroke="#E8695A" stroke-width="4.58333" stroke-miterlimit="8" fill="none" fill-rule="evenodd"/><path d="M2222.5-753.317C2280.02-996.716 2459.35-879.62 2573.5-685.5" stroke="#E8695A" stroke-width="6.875" stroke-miterlimit="8" fill="none" fill-rule="evenodd"/><path d="M2511.5-617.5C2511.5-658.369 2558.73-691.5 2617-691.5 2675.27-691.5 2722.5-658.369 2722.5-617.5 2722.5-576.631 2675.27-543.5 2617-543.5 2558.73-543.5 2511.5-576.631 2511.5-617.5Z" stroke="#E8695A" stroke-width="4.58333" stroke-miterlimit="8" fill="#E8695A" fill-rule="evenodd"/><path d="M2538.5-667.81C2606.29-674.754 2684.97-628.137 2707.5-581.5" stroke="#020A6A" stroke-width="6.875" stroke-miterlimit="8" fill="none" fill-rule="evenodd"/><path d="M2564.5-684.316C2633.86-687.8 2704.5-641.16 2719.5-594.5" stroke="#020A6A" stroke-width="6.875" stroke-miterlimit="8" fill="none" fill-rule="evenodd"/><path d="M2521.5-647.5C2617.08-646.83 2682.19-585.969 2696.5-568.5" stroke="#020A6A" stroke-width="6.875" stroke-miterlimit="8" fill="none" fill-rule="evenodd"/><path d="M2638.34-543.773C2640.61-585.844 2678.88-620.694 2724.87-628.114" stroke="#020A6A" stroke-width="6.875" stroke-miterlimit="8" fill="none" fill-rule="evenodd"/><path d="M2610.51-543.693C2624.46-611.2 2668.23-650.176 2705.29-661.72" stroke="#020A6A" stroke-width="6.875" stroke-miterlimit="8" fill="none" fill-rule="evenodd"/><path d="M2582.98-548.629C2611.37-641.573 2646.89-668.862 2671.57-684.531" stroke="#020A6A" stroke-width="6.875" stroke-miterlimit="8" fill="none" fill-rule="evenodd"/><path d="M2511.5-619.5C2511.5-660.369 2558.73-693.5 2617-693.5 2675.27-693.5 2722.5-660.369 2722.5-619.5 2722.5-578.631 2675.27-545.5 2617-545.5 2558.73-545.5 2511.5-578.631 2511.5-619.5Z" stroke="#E8695A" stroke-width="9.16667" stroke-miterlimit="8" fill="none" fill-rule="evenodd"/><text fill="#E8695A" font-family="Franklin Gothic Book,Franklin Gothic Book_MSFontService,sans-serif" font-weight="400" font-size="403" transform="matrix(1 0 0 1 643.594 -422)">phlowers</text><text fill="#020A6A" font-family="Franklin Gothic Book,Franklin Gothic Book_MSFontService,sans-serif" font-weight="400" font-size="403" transform="matrix(1 0 0 1 643.808 -608)">phlowers</text></g></svg>