<?xml version="1.0" encoding="UTF-8"?> <svg xmlns="http://www.w3.org/2000/svg" id="Layer_1" data-name="Layer 1" viewBox="0 0 867 150"><defs><style>.cls-1{fill:#009ade;}.cls-2{fill:#003764;}.cls-3{fill:#410099;}.cls-4{fill:#7473c0;}.cls-5{fill:#ff647d;}</style></defs><polygon class="cls-1" points="158 38.6 158 26.7 152 26.7 152 44.5 169.8 44.5 169.8 38.6 158 38.6"></polygon><polygon class="cls-2" points="181.7 14.8 152 14.8 152 23.7 157.9 23.7 157.9 20.7 175.8 20.7 175.8 38.6 172.9 38.6 172.9 44.5 181.7 44.5 181.7 14.8"></polygon><path class="cls-2" d="M189.6,15.1h9.1V36.9h13v7.5h-22l-.1-29.3Z"></path><path class="cls-2" d="M215.5,15.1h22.7v7.5H224.5v3.7h11.7v7H224.5V44.5h-9.1V15.1Z"></path><path class="cls-1" d="M261.5,44.6H245.1V15h16.4v1.9H247.2V28.1h13.5V30H247.2V42.6h14.3Z"></path><path class="cls-1" d="M290.2,44.6h-2.1L270.3,18.4h-.2c.2,3.2.2,5.5.2,7.1V44.7h-1.9V15h2.1l17.8,26.2h.1c-.1-2.4-.2-4.7-.2-7V15h2V44.6Z"></path><path class="cls-1" d="M315,44.6H298.6V15H315v1.9H300.7V28.1h13.5V30H300.7V42.6H315Z"></path><path class="cls-1" d="M324,31.8V44.6h-2.1V15h7.2c3.7,0,6.4.6,8.2,2s2.6,3.4,2.6,6.1a7.96977,7.96977,0,0,1-1.6,5.1,8.55859,8.55859,0,0,1-4.8,2.9l8.1,13.5h-2.5l-7.7-12.8Zm0-1.8h5.7c2.5,0,4.5-.5,5.9-1.7a6.01065,6.01065,0,0,0,2.1-5c0-2.3-.6-3.9-2-5s-3.6-1.6-6.7-1.6h-5Z"></path><path class="cls-1" d="M358.3,29.4h10.8V42.6a24.17061,24.17061,0,0,1-9.6,1.8c-4.6,0-8.2-1.3-10.6-3.9s-3.7-6.2-3.7-11a16.32614,16.32614,0,0,1,1.8-7.8,12.88893,12.88893,0,0,1,5.3-5.3,15.92451,15.92451,0,0,1,7.9-1.9,19.74559,19.74559,0,0,1,8.6,1.8l-.8,1.8a18.24617,18.24617,0,0,0-7.9-1.8c-3.9,0-7,1.2-9.2,3.6a13.62282,13.62282,0,0,0-3.4,9.5c0,4.3,1.1,7.6,3.3,9.8,2.1,2.2,5.3,3.3,9.5,3.3a16.90044,16.90044,0,0,0,6.8-1.2V31.1h-8.7V29.4Z"></path><path class="cls-1" d="M383.4,31.1,392.1,15h2.2l-9.9,18V44.4h-2.1V33.2L372.3,15h2.4Z"></path><path class="cls-3" d="M200.9,109.1c0,8.2-2.2,14.6-6.7,19.3-4.5,4.6-10.4,7-18,7-7.4,0-13.4-2.3-17.7-7-4.4-4.6-6.5-11.1-6.5-19.3V90c0-8.2,2.2-14.6,6.5-19.3,4.4-4.6,10.3-7,17.7-7,7.5,0,13.5,2.3,18,7,4.5,4.6,6.7,11.1,6.7,19.4Zm-9.7-19.3c0-6.1-1.3-10.6-3.9-13.8s-6.3-4.7-11.2-4.7c-4.6,0-8.2,1.6-10.7,4.7-2.5,3.2-3.8,7.7-3.8,13.8v19.3c0,6.1,1.3,10.7,3.8,13.9s6.1,4.7,10.8,4.7c4.8,0,8.5-1.6,11.2-4.7,2.6-3.2,3.9-7.8,3.9-13.9V89.8Z"></path><path class="cls-3" d="M222,106.9v27.5h-9.7V64.6H235c6.6,0,11.8,1.9,15.6,5.8s5.7,9,5.7,15.3-1.9,11.5-5.7,15.3c-3.8,3.9-9,5.8-15.6,5.8H222Zm0-7.5h13c3.8,0,6.6-1.3,8.6-3.9,2-2.5,2.9-5.8,2.9-9.7a15.61894,15.61894,0,0,0-2.9-9.8c-1.9-2.6-4.8-3.9-8.6-3.9H222Z"></path><path class="cls-3" d="M300,102H276.3v25h27.9v7.4H266.5V64.6h37.4v7.5H276.2V94.5H300Z"></path><path class="cls-3" d="M323.7,104.3v30H314V64.7h20.5c6.7,0,11.9,1.7,15.6,5.2,3.7,3.4,5.5,8.3,5.5,14.6a18.0973,18.0973,0,0,1-2.5,9.6,17.03364,17.03364,0,0,1-7.4,6.3,14.25567,14.25567,0,0,1,7.8,6,20.5189,20.5189,0,0,1,2.4,10.4v6.1a29.0688,29.0688,0,0,0,.6,6,8.36129,8.36129,0,0,0,2.2,4.3v1.1h-10a7.94393,7.94393,0,0,1-2.1-4.8,47.6703,47.6703,0,0,1-.5-6.6V117q0-5.85-2.7-9.3a9.23028,9.23028,0,0,0-7.5-3.4Zm0-7.4H334c4,0,7.1-1.1,9-3.2s2.8-5.2,2.8-9.1c0-4-.9-7.1-2.8-9.3s-4.7-3.3-8.5-3.3H323.7V96.8h0Z"></path><path class="cls-3" d="M399.5,116.7H378.6l-5.1,17.6H363.4l21-69.6h9.5l20.7,69.6H404.5ZM380.9,109h16.5l-8.1-28.3H389Z"></path><path class="cls-3" d="M458.3,72.1H439.8v62.1H430V72.1H411.7V64.6h46.7v7.5Z"></path><path class="cls-3" d="M512.3,109.1c0,8.2-2.2,14.6-6.7,19.3-4.5,4.6-10.4,7-18,7-7.4,0-13.4-2.3-17.7-7-4.4-4.6-6.5-11.1-6.5-19.3V90c0-8.2,2.2-14.6,6.5-19.3,4.4-4.6,10.3-7,17.7-7,7.5,0,13.5,2.3,18,7s6.7,11.1,6.7,19.4Zm-9.7-19.3c0-6.1-1.3-10.6-3.9-13.8s-6.3-4.7-11.2-4.7c-4.6,0-8.2,1.6-10.7,4.7-2.5,3.2-3.8,7.7-3.8,13.8v19.3c0,6.1,1.3,10.7,3.8,13.9s6.1,4.7,10.8,4.7c4.8,0,8.5-1.6,11.2-4.7,2.6-3.2,3.9-7.8,3.9-13.9V89.8Z"></path><path class="cls-3" d="M533.4,104.3v30h-9.7V64.7h20.5c6.7,0,11.9,1.7,15.6,5.2,3.7,3.4,5.5,8.3,5.5,14.6a18.0973,18.0973,0,0,1-2.5,9.6,17.03344,17.03344,0,0,1-7.4,6.3,14.25574,14.25574,0,0,1,7.8,6,20.5192,20.5192,0,0,1,2.4,10.4v6.1a29.0709,29.0709,0,0,0,.6,6,8.36159,8.36159,0,0,0,2.2,4.3v1.1h-10a7.944,7.944,0,0,1-2.1-4.8,47.6703,47.6703,0,0,1-.5-6.6V117q0-5.85-2.7-9.3a9.23031,9.23031,0,0,0-7.5-3.4Zm0-7.4h10.3c4,0,7.1-1.1,9-3.2s2.8-5.2,2.8-9.1c0-4-.9-7.1-2.8-9.3S548,72,544.2,72H533.4V96.8h0Z"></path><path class="cls-4" d="M612.5,103.4H588v31h-9.7V64.6h38.3v7.5H588V95.9h24.4v7.5Z"></path><path class="cls-4" d="M653.9,116.7H633l-5.1,17.6h-10.1l21-69.6h9.5l20.7,69.6h-10.1ZM635.1,109h16.5l-8.1-28.3h-.2Z"></path><path class="cls-4" d="M677,134.2V64.6h19.4c6.6,0,11.9,1.6,15.7,4.6,3.8,3.2,5.7,7.8,5.7,14a15.44868,15.44868,0,0,1-2.4,8.6,15.08051,15.08051,0,0,1-6.8,5.6,13.26586,13.26586,0,0,1,9.4,5.8,19.43069,19.43069,0,0,1,3.3,11.2c0,6.4-1.9,11.3-5.6,14.6-3.7,3.4-8.7,5.1-15.3,5.1H677Zm9.7-39.3h11.1a10.133,10.133,0,0,0,7.4-3.1c1.8-1.9,2.6-4.6,2.6-8.2,0-3.8-.9-6.7-2.9-8.6s-4.8-2.8-8.6-2.8h-9.6V94.9Zm0,6.9v25.1h13.5a10.39212,10.39212,0,0,0,8.1-3.2c1.9-2.1,2.8-5.2,2.8-9.1a14.22119,14.22119,0,0,0-2.8-9.2,10.05349,10.05349,0,0,0-7.9-3.6H686.7Z"></path><path class="cls-4" d="M741,104.3v30h-9.7V64.7h20.5c6.7,0,11.9,1.7,15.6,5.2,3.7,3.4,5.5,8.3,5.5,14.6a18.09721,18.09721,0,0,1-2.5,9.6,17.03347,17.03347,0,0,1-7.4,6.3,14.25581,14.25581,0,0,1,7.8,6,20.5193,20.5193,0,0,1,2.4,10.4v6.1a29.0702,29.0702,0,0,0,.6,6,8.36152,8.36152,0,0,0,2.2,4.3v1.1h-10a7.94392,7.94392,0,0,1-2.1-4.8,47.67185,47.67185,0,0,1-.5-6.6V117q0-5.85-2.7-9.3a9.23031,9.23031,0,0,0-7.5-3.4Zm0-7.4h10.3c4,0,7.1-1.1,9-3.2s2.8-5.2,2.8-9.1c0-4-.9-7.1-2.8-9.3s-4.7-3.3-8.5-3.3H741V96.8h0Z"></path><path class="cls-4" d="M796.5,134.2h-9.7V64.6h9.7Z"></path><path class="cls-4" d="M854.4,113.4l.1.3c.1,6.8-1.8,12.2-5.8,16s-9.4,5.7-16.3,5.7c-7.2,0-12.8-2.3-17.2-6.8-4.2-4.5-6.4-11-6.4-19.3V89.9c0-8.2,2.1-14.6,6.3-19.3s9.8-7,16.9-7c7.2,0,12.7,1.8,16.7,5.5s5.9,9.1,5.8,16.1l-.1.3H845c0-5-1.1-8.6-3.3-11s-5.5-3.5-9.8-3.5a11.45087,11.45087,0,0,0-9.9,4.8c-2.3,3.3-3.5,7.8-3.5,13.8v19.5c0,6.1,1.2,10.7,3.6,13.9,2.4,3.3,5.8,4.8,10.2,4.8,4.2,0,7.4-1.2,9.5-3.5s3.2-6,3.2-11.2h9.4Z"></path><path class="cls-3" d="M59.9,103.5a5.56428,5.56428,0,0,0-1.3-6.1l-7.9-8a5.74892,5.74892,0,0,0-6.1-1.3L35.3,92l-4.2,25.1h0l25.1-4.2Z"></path><path class="cls-3" d="M90.4,36.9l-3.9,9.4a5.56428,5.56428,0,0,0,1.3,6.1l8,8a5.74892,5.74892,0,0,0,6.1,1.3l9.4-3.9,4.2-25.1Z"></path><path class="cls-3" d="M84.1,104.4a5.5602,5.5602,0,0,0-5.2-3.5H67.5a5.66236,5.66236,0,0,0-5.2,3.5l-3.9,9.5,14.7,20.7h.1l14.7-20.7Z"></path><path class="cls-3" d="M112.2,60.2l-9.4,3.9a5.5602,5.5602,0,0,0-3.5,5.2V80.6a5.66236,5.66236,0,0,0,3.5,5.2l9.5,3.9L133,74.8h0Z"></path><path class="cls-3" d="M101.9,88.1a5.56428,5.56428,0,0,0-6.1,1.3l-8,8a5.74892,5.74892,0,0,0-1.3,6.1l3.9,9.5,25.1,4.2h0l-4.2-25.1Z"></path><path class="cls-3" d="M35.2,57.8l9.4,3.9a5.56428,5.56428,0,0,0,6.1-1.3l8-8A5.74892,5.74892,0,0,0,60,46.3l-3.9-9.4L31,32.7Z"></path><path class="cls-3" d="M43.6,85.8a5.5602,5.5602,0,0,0,3.5-5.2V69.3a5.66233,5.66233,0,0,0-3.5-5.2l-9.4-3.9L13.5,74.9h0L34.2,89.6Z"></path><path class="cls-3" d="M58.5,35.9l3.9,9.4a5.5602,5.5602,0,0,0,5.2,3.5H78.9a5.66236,5.66236,0,0,0,5.2-3.5L88,35.9,73.1,15.1Z"></path><path class="cls-4" d="M31,117.2l10.5,10.5.1.1a5.58869,5.58869,0,0,0,9.1-1.9l5.4-13Z"></path><path class="cls-4" d="M115.5,32.7h0L105,22.1l-.1-.1a5.58867,5.58867,0,0,0-9.1,1.9L90.4,37Z"></path><path class="cls-4" d="M88,113.9,73.3,134.6H88.4a5.6104,5.6104,0,0,0,5.1-7.8Z"></path><path class="cls-4" d="M132.9,60h0a5.66205,5.66205,0,0,0-7.8-5.2l-13,5.4,20.7,14.7C132.9,74.9,132.9,60,132.9,60Z"></path><path class="cls-4" d="M124.2,97.4l-13-5.4,4.2,25.1,10.5-10.5.1-.1A5.53385,5.53385,0,0,0,124.2,97.4Z"></path><path class="cls-4" d="M22.2,52.4l13,5.4L31,32.7h0L20.5,43.2l-.1.1A5.626,5.626,0,0,0,22.2,52.4Z"></path><path class="cls-4" d="M21.3,95.1l13-5.4L13.5,74.9V90A5.69165,5.69165,0,0,0,21.3,95.1Z"></path><path class="cls-4" d="M58.5,35.9,73.2,15.2H58.1A5.61039,5.61039,0,0,0,53,23Z"></path><path class="cls-5" d="M22.2,97.4a5.6355,5.6355,0,0,0-1.9,9.1l.1.1L31,117.1,35.2,92Z"></path><path class="cls-5" d="M110.6,57.8l12.8-5.4a5.63548,5.63548,0,0,0,1.9-9.1l-.1-.1L114.7,32.7h0Z"></path><path class="cls-5" d="M52.9,126.9a5.65035,5.65035,0,0,0,5.1,7.8H73L58.3,114Z"></path><path class="cls-5" d="M124.4,95.1a5.57121,5.57121,0,0,0,7.7-5.1V74.9L111.6,89.6Z"></path><path class="cls-5" d="M95.2,125.8a5.57917,5.57917,0,0,0,9.1,1.9l.1-.1,10.4-10.5-24.9-4.2Z"></path><path class="cls-5" d="M55.8,36.9l-5.4-13A5.57917,5.57917,0,0,0,41.3,22l-.1.1L30.8,32.7h0Z"></path><path class="cls-5" d="M21.2,54.8a5.51939,5.51939,0,0,0-7.7,5.1V75L34.1,60.3Z"></path><path class="cls-5" d="M87.4,36l5.4-13a5.65035,5.65035,0,0,0-5.1-7.8H72.8Z"></path></svg> 